<svg xmlns="http://www.w3.org/2000/svg" width="54" height="54" viewBox="0 0 54 54">
  <g id="グループ_287" data-name="グループ 287" transform="translate(-2603 -7533)">
    <circle id="楕円形_41" data-name="楕円形 41" cx="27" cy="27" r="27" transform="translate(2603 7533)" fill="#ff8277"/>
    <g id="グループ_286" data-name="グループ 286" transform="translate(2617.225 7542.524)">
      <g id="グループ_171" data-name="グループ 171">
        <path id="パス_286" data-name="パス 286" d="M11.85,16.765V10.517a4.176,4.176,0,1,1,8.352,0v6.248a7.517,7.517,0,1,0-8.352,0ZM28.287,24.5,20.7,20.724a2.352,2.352,0,0,0-.9-.184h-1.27V10.517a2.506,2.506,0,1,0-5.011,0V28.458c-6.014-1.27-5.913-1.253-6.131-1.253a1.869,1.869,0,0,0-1.32.551L4.75,29.093,13,37.345a2.515,2.515,0,0,0,1.771.735H26.115a2.433,2.433,0,0,0,2.405-2.138l1.253-8.8A2.4,2.4,0,0,0,28.287,24.5Z" transform="translate(-4.75 -3)" fill="#fff"/>
      </g>
    </g>
  </g>
</svg>
